<?xml version="1.0" encoding="UTF-8" standalone="no"?>
<!DOCTYPE svg PUBLIC "-//W3C//DTD SVG 1.1//EN"
 "http://www.w3.org/Graphics/SVG/1.1/DTD/svg11.dtd">
<!-- Generated by graphviz version 2.47.3 (20210619.1520)
 -->
<!-- Title: dependencies Pages: 1 -->
<svg width="1487pt" height="247pt"
 viewBox="0.00 0.00 1487.00 246.80" xmlns="http://www.w3.org/2000/svg" xmlns:xlink="http://www.w3.org/1999/xlink">
<g id="graph0" class="graph" transform="scale(1 1) rotate(0) translate(4 242.8)">
<title>dependencies</title>
<polygon fill="white" stroke="transparent" points="-4,4 -4,-242.8 1483,-242.8 1483,4 -4,4"/>
<text text-anchor="middle" x="739.5" y="-8.2" font-family="sans-serif" font-size="14.00">dependencies</text>
<g id="clust1" class="cluster">
<title>cluster_AppModule</title>
<polygon fill="none" stroke="black" stroke-dasharray="1,5" points="8,-32.8 8,-230.8 1471,-230.8 1471,-32.8 8,-32.8"/>
</g>
<g id="clust12" class="cluster">
<title>cluster_AppModule_imports</title>
<polygon fill="none" stroke="black" points="1319,-40.8 1319,-92.8 1463,-92.8 1463,-40.8 1319,-40.8"/>
</g>
<g id="clust14" class="cluster">
<title>cluster_AppModule_bootstrap</title>
<polygon fill="none" stroke="black" points="711,-170.8 711,-222.8 835,-222.8 835,-170.8 711,-170.8"/>
</g>
<g id="clust2" class="cluster">
<title>cluster_AppModule_declarations</title>
<polygon fill="none" stroke="black" points="16,-40.8 16,-92.8 1311,-92.8 1311,-40.8 16,-40.8"/>
</g>
<!-- AboutComponent -->
<g id="node1" class="node">
<title>AboutComponent</title>
<polygon fill="#ffffb3" stroke="black" points="1303.33,-84.8 1186.67,-84.8 1186.67,-48.8 1303.33,-48.8 1303.33,-84.8"/>
<text text-anchor="middle" x="1245" y="-62.6" font-family="Times,serif" font-size="14.00">AboutComponent</text>
</g>
<!-- AppModule -->
<g id="node10" class="node">
<title>AppModule</title>
<polygon fill="#8dd3c7" stroke="black" points="814.66,-149.8 811.66,-153.8 790.66,-153.8 787.66,-149.8 731.34,-149.8 731.34,-113.8 814.66,-113.8 814.66,-149.8"/>
<text text-anchor="middle" x="773" y="-127.6" font-family="Times,serif" font-size="14.00">AppModule</text>
</g>
<!-- AboutComponent&#45;&gt;AppModule -->
<g id="edge1" class="edge">
<title>AboutComponent&#45;&gt;AppModule</title>
<path fill="none" stroke="black" d="M1245,-84.93C1245,-105.37 1245,-135.8 1245,-135.8 1245,-135.8 824.89,-135.8 824.89,-135.8"/>
<polygon fill="black" stroke="black" points="824.89,-132.3 814.89,-135.8 824.89,-139.3 824.89,-132.3"/>
</g>
<!-- AppComponent -->
<g id="node2" class="node">
<title>AppComponent</title>
<polygon fill="#ffffb3" stroke="black" points="1168.94,-84.8 1063.06,-84.8 1063.06,-48.8 1168.94,-48.8 1168.94,-84.8"/>
<text text-anchor="middle" x="1116" y="-62.6" font-family="Times,serif" font-size="14.00">AppComponent</text>
</g>
<!-- AppComponent&#45;&gt;AppModule -->
<g id="edge2" class="edge">
<title>AppComponent&#45;&gt;AppModule</title>
<path fill="none" stroke="black" d="M1116,-85.07C1116,-103.36 1116,-128.8 1116,-128.8 1116,-128.8 824.72,-128.8 824.72,-128.8"/>
<polygon fill="black" stroke="black" points="824.72,-125.3 814.72,-128.8 824.72,-132.3 824.72,-125.3"/>
</g>
<!-- ContentComponent -->
<g id="node3" class="node">
<title>ContentComponent</title>
<polygon fill="#ffffb3" stroke="black" points="1044.67,-84.8 919.33,-84.8 919.33,-48.8 1044.67,-48.8 1044.67,-84.8"/>
<text text-anchor="middle" x="982" y="-62.6" font-family="Times,serif" font-size="14.00">ContentComponent</text>
</g>
<!-- ContentComponent&#45;&gt;AppModule -->
<g id="edge3" class="edge">
<title>ContentComponent&#45;&gt;AppModule</title>
<path fill="none" stroke="black" d="M982,-84.81C982,-100.85 982,-121.8 982,-121.8 982,-121.8 824.79,-121.8 824.79,-121.8"/>
<polygon fill="black" stroke="black" points="824.79,-118.3 814.79,-121.8 824.79,-125.3 824.79,-118.3"/>
</g>
<!-- FooterComponent -->
<g id="node4" class="node">
<title>FooterComponent</title>
<polygon fill="#ffffb3" stroke="black" points="900.88,-84.8 783.12,-84.8 783.12,-48.8 900.88,-48.8 900.88,-84.8"/>
<text text-anchor="middle" x="842" y="-62.6" font-family="Times,serif" font-size="14.00">FooterComponent</text>
</g>
<!-- FooterComponent&#45;&gt;AppModule -->
<g id="edge4" class="edge">
<title>FooterComponent&#45;&gt;AppModule</title>
<path fill="none" stroke="black" d="M798.94,-84.91C798.94,-84.91 798.94,-103.79 798.94,-103.79"/>
<polygon fill="black" stroke="black" points="795.44,-103.79 798.94,-113.79 802.44,-103.79 795.44,-103.79"/>
</g>
<!-- HeaderComponent -->
<g id="node5" class="node">
<title>HeaderComponent</title>
<polygon fill="#ffffb3" stroke="black" points="764.74,-84.8 643.26,-84.8 643.26,-48.8 764.74,-48.8 764.74,-84.8"/>
<text text-anchor="middle" x="704" y="-62.6" font-family="Times,serif" font-size="14.00">HeaderComponent</text>
</g>
<!-- HeaderComponent&#45;&gt;AppModule -->
<g id="edge5" class="edge">
<title>HeaderComponent&#45;&gt;AppModule</title>
<path fill="none" stroke="black" d="M748.02,-84.91C748.02,-84.91 748.02,-103.79 748.02,-103.79"/>
<polygon fill="black" stroke="black" points="744.52,-103.79 748.02,-113.79 751.52,-103.79 744.52,-103.79"/>
</g>
<!-- ProductCardComponent -->
<g id="node6" class="node">
<title>ProductCardComponent</title>
<polygon fill="#ffffb3" stroke="black" points="625.09,-84.8 472.91,-84.8 472.91,-48.8 625.09,-48.8 625.09,-84.8"/>
<text text-anchor="middle" x="549" y="-62.6" font-family="Times,serif" font-size="14.00">ProductCardComponent</text>
</g>
<!-- ProductCardComponent&#45;&gt;AppModule -->
<g id="edge6" class="edge">
<title>ProductCardComponent&#45;&gt;AppModule</title>
<path fill="none" stroke="black" d="M549,-84.81C549,-100.85 549,-121.8 549,-121.8 549,-121.8 721.13,-121.8 721.13,-121.8"/>
<polygon fill="black" stroke="black" points="721.13,-125.3 731.13,-121.8 721.13,-118.3 721.13,-125.3"/>
</g>
<!-- ProductComponent -->
<g id="node7" class="node">
<title>ProductComponent</title>
<polygon fill="#ffffb3" stroke="black" points="455.38,-84.8 330.62,-84.8 330.62,-48.8 455.38,-48.8 455.38,-84.8"/>
<text text-anchor="middle" x="393" y="-62.6" font-family="Times,serif" font-size="14.00">ProductComponent</text>
</g>
<!-- ProductComponent&#45;&gt;AppModule -->
<g id="edge7" class="edge">
<title>ProductComponent&#45;&gt;AppModule</title>
<path fill="none" stroke="black" d="M393,-85.07C393,-103.36 393,-128.8 393,-128.8 393,-128.8 721.25,-128.8 721.25,-128.8"/>
<polygon fill="black" stroke="black" points="721.25,-132.3 731.25,-128.8 721.25,-125.3 721.25,-132.3"/>
</g>
<!-- ProductListComponent -->
<g id="node8" class="node">
<title>ProductListComponent</title>
<polygon fill="#ffffb3" stroke="black" points="312.16,-84.8 165.84,-84.8 165.84,-48.8 312.16,-48.8 312.16,-84.8"/>
<text text-anchor="middle" x="239" y="-62.6" font-family="Times,serif" font-size="14.00">ProductListComponent</text>
</g>
<!-- ProductListComponent&#45;&gt;AppModule -->
<g id="edge8" class="edge">
<title>ProductListComponent&#45;&gt;AppModule</title>
<path fill="none" stroke="black" d="M239,-84.93C239,-105.37 239,-135.8 239,-135.8 239,-135.8 721.1,-135.8 721.1,-135.8"/>
<polygon fill="black" stroke="black" points="721.1,-139.3 731.1,-135.8 721.1,-132.3 721.1,-139.3"/>
</g>
<!-- SidebarComponent -->
<g id="node9" class="node">
<title>SidebarComponent</title>
<polygon fill="#ffffb3" stroke="black" points="148.1,-84.8 23.9,-84.8 23.9,-48.8 148.1,-48.8 148.1,-84.8"/>
<text text-anchor="middle" x="86" y="-62.6" font-family="Times,serif" font-size="14.00">SidebarComponent</text>
</g>
<!-- SidebarComponent&#45;&gt;AppModule -->
<g id="edge9" class="edge">
<title>SidebarComponent&#45;&gt;AppModule</title>
<path fill="none" stroke="black" d="M86,-84.81C86,-107.29 86,-142.8 86,-142.8 86,-142.8 721.32,-142.8 721.32,-142.8"/>
<polygon fill="black" stroke="black" points="721.32,-146.3 731.32,-142.8 721.32,-139.3 721.32,-146.3"/>
</g>
<!-- AppComponent  -->
<g id="node12" class="node">
<title>AppComponent </title>
<polygon fill="#80b1d3" stroke="black" points="827.44,-214.8 718.56,-214.8 718.56,-178.8 827.44,-178.8 827.44,-214.8"/>
<text text-anchor="middle" x="773" y="-192.6" font-family="Times,serif" font-size="14.00">AppComponent </text>
</g>
<!-- AppModule&#45;&gt;AppComponent  -->
<g id="edge11" class="edge">
<title>AppModule&#45;&gt;AppComponent </title>
<path fill="none" stroke="black" stroke-dasharray="1,5" d="M773,-149.91C773,-149.91 773,-168.79 773,-168.79"/>
<polygon fill="black" stroke="black" points="769.5,-168.79 773,-178.79 776.5,-168.79 769.5,-168.79"/>
</g>
<!-- AppRoutingModule -->
<g id="node11" class="node">
<title>AppRoutingModule</title>
<polygon fill="#8dd3c7" stroke="black" points="1455.27,-84.8 1452.27,-88.8 1431.27,-88.8 1428.27,-84.8 1326.73,-84.8 1326.73,-48.8 1455.27,-48.8 1455.27,-84.8"/>
<text text-anchor="middle" x="1391" y="-62.6" font-family="Times,serif" font-size="14.00">AppRoutingModule</text>
</g>
<!-- AppRoutingModule&#45;&gt;AppModule -->
<g id="edge10" class="edge">
<title>AppRoutingModule&#45;&gt;AppModule</title>
<path fill="none" stroke="black" d="M1391,-84.81C1391,-107.29 1391,-142.8 1391,-142.8 1391,-142.8 824.99,-142.8 824.99,-142.8"/>
<polygon fill="black" stroke="black" points="824.99,-139.3 814.99,-142.8 824.99,-146.3 824.99,-139.3"/>
</g>
</g>
</svg>
